<?xml version="1.0" encoding="UTF-8" standalone="no"?>
<!-- Created with Inkscape (http://www.inkscape.org/) -->

<svg
   xmlns:dc="http://purl.org/dc/elements/1.1/"
   xmlns:cc="http://creativecommons.org/ns#"
   xmlns:rdf="http://www.w3.org/1999/02/22-rdf-syntax-ns#"
   xmlns:svg="http://www.w3.org/2000/svg"
   xmlns="http://www.w3.org/2000/svg"
   xmlns:sodipodi="http://sodipodi.sourceforge.net/DTD/sodipodi-0.dtd"
   xmlns:inkscape="http://www.inkscape.org/namespaces/inkscape"
   width="265.70944"
   height="104.56445"
   id="svg2"
   version="1.1"
   inkscape:version="0.48.4 r9939"
   sodipodi:docname="drawing.svg">
  <defs
     id="defs4" />
  <sodipodi:namedview
     id="base"
     pagecolor="#ffffff"
     bordercolor="#666666"
     borderopacity="1.0"
     inkscape:pageopacity="0.0"
     inkscape:pageshadow="2"
     inkscape:zoom="1.4"
     inkscape:cx="74.298081"
     inkscape:cy="6.237607"
     inkscape:document-units="px"
     inkscape:current-layer="layer1"
     showgrid="false"
     inkscape:window-width="1366"
     inkscape:window-height="716"
     inkscape:window-x="-8"
     inkscape:window-y="-8"
     inkscape:window-maximized="1"
     fit-margin-top="0"
     fit-margin-left="0"
     fit-margin-right="0"
     fit-margin-bottom="0" />
  <metadata
     id="metadata7">
    <rdf:RDF>
      <cc:Work
         rdf:about="">
        <dc:format>image/svg+xml</dc:format>
        <dc:type
           rdf:resource="http://purl.org/dc/dcmitype/StillImage" />
        <dc:title></dc:title>
      </cc:Work>
    </rdf:RDF>
  </metadata>
  <g
     inkscape:label="Layer 1"
     inkscape:groupmode="layer"
     id="layer1"
     transform="translate(-327.71836,-442.09413)">
    <g
       transform="translate(331.25531,525.64818)"
       style="font-size:144px;font-style:normal;font-variant:normal;font-weight:bold;font-stretch:normal;line-height:125%;letter-spacing:0px;word-spacing:0px;fill:#d64541;fill-opacity:1;stroke:none;font-family:Alte Haas Grotesk;-inkscape-font-specification:Sans Bold"
       id="text3775">
      <path
         d="m 92.745718,12.283754 c 0.09658,0.383796 0.264308,0.863532 0.503174,1.439209 0.238672,0.575689 0.430567,1.175542 0.575684,1.799561 0.144921,0.624026 0.169091,1.224612 0.07251,1.801758 -0.09678,0.577149 -0.432227,1.009278 -1.006348,1.296386 -0.770604,0.480469 -2.043552,0.672364 -3.818848,0.575684 -1.775482,-0.09668 -3.238859,-0.145019 -4.390136,-0.14502 l -6.767578,0 c -0.76766,1e-6 -1.46346,0.02417 -2.087403,0.07251 -0.624103,0.04834 -1.224688,-0.02417 -1.801758,-0.217529 C 72.970251,18.619204 72.202673,18.043521 71.722281,17.179262 71.241737,16.411687 70.881386,15.59577 70.641226,14.731508 70.400917,13.867256 70.088906,13.002999 69.705191,12.138735 69.224649,10.603587 68.720743,9.0684324 68.193472,7.5332661 67.666057,5.998123 67.113811,4.5098433 66.536734,3.0684223 66.249554,2.2041815 65.985883,1.4124342 65.745718,0.69317818 65.505414,-0.02604088 65.24101,-0.67423359 64.952506,-1.2514019 c -0.288643,-0.5771274 -0.720772,-1.0817656 -1.296387,-1.513916 -0.575751,-0.4321065 -1.344061,-0.7433855 -2.304932,-0.9338379 -0.477604,2.29e-5 -0.932437,-0.024147 -1.364502,-0.07251 -0.432192,-0.048317 -0.888491,-0.072487 -1.368896,-0.07251 l -22.750488,0 c -1.634805,2.3e-5 -3.388221,-0.024147 -5.260254,-0.07251 -1.872104,-0.048317 -3.335481,0.3113021 -4.390137,1.0788574 -0.767608,0.5771699 -1.295683,1.3454797 -1.584229,2.30493166 -0.288602,0.95949142 -0.624784,1.91969554 -1.008545,2.88061524 -0.767605,1.6318511 -1.415065,3.3361951 -1.942382,5.1130371 -0.527369,1.7768654 -1.127955,3.5280844 -1.801758,5.2536614 -0.383813,0.960943 -0.743432,1.969487 -1.078858,3.025635 -0.335471,1.056155 -0.886985,1.872804 -1.654541,2.449951 -0.480489,0.38379 -1.177022,0.647462 -2.089599,0.791016 -0.912616,0.143555 -1.920428,0.215332 -3.023438,0.215332 -1.103042,0 -2.2309707,-0.02417 -3.3837888,-0.07251 -1.1528437,-0.04834 -2.1613876,-0.07251 -3.0256348,-0.07251 -1.2480554,10e-7 -2.7597726,0.02417 -4.5351562,0.07251 -1.77539411,0.04834 -3.0468772,-0.167724 -3.8144531,-0.648193 -0.4804697,-0.287108 -0.7448738,-0.718505 -0.7932129,-1.29419 -0.048341,-0.575681 -7.331e-4,-1.175533 0.1428222,-1.79956 0.1435538,-0.624019 0.3112782,-1.224604 0.5031739,-1.801758 0.191893,-0.577142 0.3845198,-1.05761 0.5778808,-1.441406 C -1.3338742,9.9326894 -0.44544735,7.6775647 0.37047434,5.373354 1.186387,3.0691709 2.026474,0.81258133 2.890738,-1.3964214 c 0.3837816,-0.7675568 0.6716231,-1.5351342 0.8635254,-2.3027344 0.1918864,-0.7675545 0.4797279,-1.5351318 0.8635254,-2.3027344 0.7675686,-2.0185275 1.5351459,-4.0832228 2.3027344,-6.1940918 0.7675662,-2.110806 1.5351436,-4.174037 2.3027343,-6.189697 0.7704937,-1.921836 1.4911965,-3.818807 2.1621095,-5.690918 0.670882,-1.872025 1.39012,-3.767531 2.157715,-5.686524 2.208964,-5.279242 4.24949,-10.606874 6.121582,-15.98291 1.872044,-5.375906 3.91257,-10.705002 6.121582,-15.987304 0.190399,-0.477458 0.333954,-0.908854 0.430664,-1.29419 0.09665,-0.385171 0.240204,-0.816567 0.430664,-1.294189 0.767546,-2.01847 1.535856,-4.083165 2.304932,-6.194092 0.769009,-2.110748 1.585658,-4.173979 2.449951,-6.189697 0.480432,-1.057521 0.888391,-2.138574 1.223877,-3.243165 0.335412,-1.104391 0.935265,-1.992086 1.79956,-2.663085 0.48043,-0.287008 1.104453,-0.527242 1.872071,-0.720704 0.190389,-0.09658 0.381551,-0.120747 0.573486,-0.07251 0.191853,0.04844 0.38448,0.02427 0.577881,-0.07251 l 12.673828,0 c 1.054632,1.03e-4 2.134221,-0.02334 3.238769,-0.07031 1.104434,-0.04677 1.992128,0.16856 2.663086,0.645996 1.054627,0.57725 1.750427,1.41807 2.087403,2.522461 0.336851,1.104591 0.745542,2.23252 1.226074,3.383789 0.670834,1.631931 1.294125,3.239595 1.869873,4.822999 0.575618,1.583585 1.200373,3.19125 1.874268,4.822998 0.190362,0.577234 0.381524,1.153649 0.573486,1.729248 0.191826,0.575767 0.384453,1.152183 0.577881,1.729248 0.767509,1.919026 1.487479,3.814532 2.159912,5.686523 0.672292,1.872146 1.392262,3.769117 2.159912,5.690918 1.918871,4.798895 3.718429,9.646058 5.398682,14.541504 1.680096,4.89556 3.527994,9.744188 5.543701,14.545898 0.193275,0.383832 0.314125,0.74345 0.362549,1.078858 0.04825,0.33549 0.16764,0.695109 0.358154,1.078857 0.577063,1.535195 1.153479,3.071083 1.729248,4.607666 0.575597,1.536656 1.150547,3.072543 1.724853,4.607666 0.386631,0.767609 0.675937,1.511749 0.86792,2.2324222 0.191806,0.7207314 0.431308,1.4648713 0.718506,2.2324218 1.247956,3.0732659 2.400055,6.1457726 3.456299,9.2175293 1.056058,3.0717919 2.208157,6.0959588 3.456299,9.0725097 0.190333,0.287118 0.285548,0.550789 0.285644,0.791016 -9.6e-5,0.240242 0.09658,0.503913 0.290039,0.791015 z M 55.449332,-20.692808 c 1.247986,-0.480429 1.823669,-1.296346 1.727051,-2.447754 -0.09674,-1.151324 -0.38385,-2.25435 -0.861329,-3.309082 -0.193419,-0.386673 -0.290099,-0.747756 -0.290039,-1.083252 -6e-5,-0.335402 -0.09674,-0.695021 -0.290039,-1.078857 -1.245176,-3.263621 -2.395809,-6.57563 -3.451904,-9.936036 -1.056208,-3.36029 -2.256646,-6.720638 -3.601318,-10.081054 -0.193412,-0.480401 -0.386039,-1.080254 -0.577881,-1.799561 -0.191947,-0.719168 -0.431449,-1.390798 -0.718506,-2.014892 -0.287161,-0.623952 -0.623342,-1.176197 -1.008545,-1.656739 -0.385304,-0.480395 -0.86504,-0.720629 -1.439209,-0.720703 -0.193408,0.193433 -0.386035,0.33772 -0.577881,0.432861 -0.191943,0.09529 -0.383105,0.239576 -0.573486,0.432862 -0.767625,0.96101 -1.319871,2.113108 -1.656738,3.456299 -0.33696,1.34333 -0.745651,2.638983 -1.226075,3.886963 -1.151411,2.689516 -2.18266,5.425841 -3.09375,8.208984 -0.911174,2.783258 -1.895548,5.566458 -2.953125,8.349609 -0.383827,0.960986 -0.720009,1.897753 -1.008545,2.810303 -0.288612,0.912643 -0.576453,1.896285 -0.863525,2.950928 -0.287146,0.767621 -0.238806,1.631878 0.14502,2.592773 0.480431,0.670939 1.272178,1.054728 2.375244,1.151367 1.102986,0.09672 2.231647,0.14506 3.385986,0.14502 l 10.942383,0 c 0.864203,4e-5 1.824407,4e-5 2.880615,0 1.056094,4e-5 1.967959,-0.09664 2.735596,-0.290039 z"
         style="fill:#d64541;fill-opacity:1"
         id="path3780"
         inkscape:connector-curvature="0" />
      <path
         d="m 106.93566,-83.477476 10.51172,0 c 0.96091,1.03e-4 1.87351,0.04844 2.73779,0.145019 0.86423,0.09678 1.53513,0.385356 2.0127,0.865723 0.57712,0.670999 0.88986,1.558694 0.93823,2.663086 0.0483,1.10459 0.0725,2.232519 0.0725,3.383789 l 0,12.814453 0,51.697266 0,22.03418 c -3e-5,1.151375 0.0241,2.471198 0.0725,3.959472 0.0483,1.488285 -0.16775,2.616214 -0.64819,3.383789 -0.4805,0.767579 -1.34476,1.294923 -2.59278,1.582031 -0.57717,0.19336 -1.22536,0.2417 -1.94458,0.14502 -0.71926,-0.09668 -1.41579,-0.145019 -2.0896,-0.14502 l -6.9082,0 c -1.05763,1e-6 -2.01857,-0.04761 -2.88281,-0.142822 -0.86427,-0.09521 -1.58351,-0.383056 -2.15772,-0.863525 -0.57716,-0.480467 -0.8899,-1.224607 -0.93823,-2.232422 -0.0483,-1.007808 -0.0725,-2.040522 -0.0725,-3.098145 l 0,-12.81445271 0,-54.00000029 0,-19.582031 c -1e-5,-1.247953 -0.0234,-2.736232 -0.0703,-4.464844 -0.0469,-1.728416 0.16845,-2.976462 0.64599,-3.74414 0.19335,-0.383688 0.45776,-0.671529 0.79322,-0.863526 0.33544,-0.191792 0.69505,-0.384419 1.07885,-0.577881 0.19335,1.03e-4 0.43432,-0.02407 0.7229,-0.07251 0.28857,-0.04824 0.52807,-0.07241 0.71851,-0.07251 z"
         style="fill:#d64541;fill-opacity:1"
         id="path3782"
         inkscape:connector-curvature="0" />
      <path
         d="m 209.86877,-18.675718 c 0.19328,0.767615 0.19328,1.631872 0,2.592773 -0.19344,0.960972 -0.52889,1.584995 -1.00635,1.87207 -0.48055,0.383823 -1.17708,0.647494 -2.0896,0.791016 -0.91267,0.143587 -1.92049,0.239534 -3.02344,0.287842 -1.1031,0.04837 -2.20686,0.04837 -3.31128,0 -1.10456,-0.04831 -2.08893,-0.07248 -2.95312,-0.07251 l -35.13428,0 c -0.67386,3.2e-5 -1.32278,3.2e-5 -1.94678,0 -0.62405,3.2e-5 -1.1763,0.09671 -1.65674,0.290039 -0.7676,0.383821 -1.2466,0.76761 -1.43701,1.151367 -0.19338,0.190461 -0.38601,0.55008 -0.57788,1.078858 -0.19192,0.528838 -0.23953,1.0334759 -0.14282,1.5139158 0.1904,0.5742465 0.30979,1.1257596 0.35815,1.654541 0.0483,0.5288348 0.16917,1.0803479 0.36255,1.654541 0.76755,2.3056868 1.70359,4.2026576 2.80811,5.69091799 1.10446,1.48829911 2.61618,2.80812201 4.53515,3.95947261 0.76755,0.4804837 1.55929,0.7924951 2.37525,0.9360352 0.81588,0.143569 1.65597,0.3589008 2.52026,0.6459961 0.76754,0.193373 1.82369,0.33766 3.16846,0.4328613 1.34468,0.095228 2.49605,0.047621 3.4541,-0.1428222 l 1.29639,0 c 0.96089,-0.1933457 1.84931,-0.4101423 2.66528,-0.6503907 0.81587,-0.2402199 1.60762,-0.5038915 2.37524,-0.7910156 0.96089,-0.4804533 2.04121,-1.1044761 3.24097,-1.8720703 1.19965,-0.7675605 2.08808,-1.53513787 2.66528,-2.30273438 0.47749,-0.6738083 0.98066,-1.32273342 1.50953,-1.94677732 0.52875,-0.6240017 1.17694,-1.0795677 1.94458,-1.3666992 0.96087,-0.4804458 2.18548,-0.6965101 3.67382,-0.6481934 1.48822,0.048363 2.85492,0.072533 4.1001,0.07251 0.57708,2.3e-5 1.17767,-0.024147 1.80176,-0.07251 0.62395,-0.048317 1.1762,0.024193 1.65674,0.2175293 l 1.4414,0 c 0.95794,0.1904524 1.62884,0.4306865 2.0127,0.7207031 0.38371,0.1904517 0.59978,0.6218477 0.64819,1.2941895 0.0483,0.6723835 -0.0228,1.2487989 -0.21313,1.72924802 -0.48055,1.34474438 -1.00862,2.54518258 -1.58423,3.60131838 -0.57576,1.0561668 -1.24885,2.1115857 -2.01929,3.1662597 -2.10944,3.1670014 -4.50812,5.7107001 -7.19604,7.6311031 -2.68805,1.920413 -6.04913,3.55298 -10.08326,4.897706 -1.05474,0.383788 -2.11015,0.62329 -3.16625,0.718505 -1.05621,0.09521 -2.15997,0.287841 -3.31128,0.577881 -0.38384,0.09375 -0.7918,0.117186 -1.22388,0.07031 -0.43218,-0.04688 -0.84013,-0.02344 -1.22388,0.07031 l -1.58642,0 c -0.48052,0.193358 -1.03276,0.265868 -1.65674,0.21753 -0.62407,-0.04834 -1.17485,-0.120852 -1.65235,-0.21753 -0.77054,-0.09375 -1.44364,-0.09302 -2.01928,0.0022 -0.57572,0.09521 -1.19902,0.0476 -1.86988,-0.142823 -0.4805,-0.19336 -1.00858,-0.29004 -1.58422,-0.290039 -0.57572,-10e-7 -1.1038,-0.09522 -1.58423,-0.285644 -1.05765,-0.19336 -2.1138,-0.410157 -3.16846,-0.650391 -1.05472,-0.240234 -2.01419,-0.600586 -2.87842,-1.081055 -1.05764,-0.383787 -2.04202,-0.743406 -2.95312,-1.078857 -0.91116,-0.335447 -1.75051,-0.743406 -2.51807,-1.223877 -3.07326,-1.91894 -5.80959,-4.150627 -8.20898,-6.6950684 -2.39943,-2.5444212 -4.36818,-5.4968108 -5.90625,-8.85717772 -0.48048,-1.05466772 -0.86427,-2.13425648 -1.15137,-3.23876958 -0.28712,-1.1044691 -0.67091,-2.2323976 -1.15137,-3.383789 -0.0967,-0.3837633 -0.14502,-0.7441146 -0.14502,-1.0810547 0,-0.3368873 -0.0483,-0.6972385 -0.14502,-1.0810547 -0.38379,-1.1513385 -0.62329,-2.3986519 -0.7185,-3.7419429 -0.0952,-1.34323 -0.19117,-2.687222 -0.28784,-4.031983 -1e-5,-0.480433 -0.0242,-1.008509 -0.0725,-1.584228 -0.0483,-0.575647 -0.0242,-1.103722 0.0725,-1.584229 l 0,-1.727051 0.43066,-3.458496 c 0.38378,-1.63179 0.71996,-3.215285 1.00854,-4.750488 0.28857,-1.535106 0.72143,-2.975046 1.29859,-4.319824 4.12792,-9.984313 11.13572,-17.040458 21.02344,-21.168457 1.34469,-0.577074 2.71286,-0.985033 4.10449,-1.223877 1.39157,-0.238694 2.85494,-0.551438 4.39013,-0.938233 0.76755,-0.09367 1.48752,-0.140549 2.15992,-0.140625 0.67232,7.6e-5 1.39229,-0.04826 2.15991,-0.145019 4.89546,-0.0966 9.09516,0.45491 12.59912,1.654541 3.50385,1.19978 6.64887,2.76057 9.43506,4.682373 0.86419,0.574288 1.72772,1.221748 2.59057,1.942383 0.86273,0.72077 1.63104,1.46491 2.30494,2.232422 0.28704,0.480534 0.67083,0.864322 1.15136,1.151367 0.76751,1.057681 1.48748,2.138002 2.15992,3.240967 0.67229,1.103087 1.39226,2.230283 2.15991,3.381591 0.48039,0.864315 0.88835,1.752742 1.22387,2.665284 0.33538,0.912652 0.695,1.896293 1.07886,2.950927 0.48039,1.248098 0.86492,2.544484 1.15357,3.88916 0.28849,1.344774 0.62467,2.689499 1.00854,4.03418 0.19035,0.767622 0.2614,1.606977 0.21314,2.518067 -0.0484,0.911173 0.0241,1.751993 0.21753,2.52246 z m -21.59913,-8.494629 c 0.67085,-0.96089 0.74262,-2.137159 0.21534,-3.528809 -0.5274,-1.39155 -0.93609,-2.424264 -1.22608,-3.098144 -1.34185,-2.589789 -3.11724,-4.581242 -5.32617,-5.974366 -2.20903,-1.393006 -5.28081,-2.136413 -9.21533,-2.230224 -0.28715,0.190491 -0.62333,0.238098 -1.00855,0.142822 -0.38529,-0.09515 -0.72147,-0.09589 -1.00854,-0.0022 -0.48051,0.19342 -1.00858,0.31427 -1.58423,0.362549 -0.57572,0.0484 -1.1038,0.167785 -1.58423,0.358154 -4.22464,1.344785 -7.34475,3.984431 -9.36035,7.918945 -0.19046,0.386771 -0.40579,0.892142 -0.646,1.516114 -0.24026,0.624073 -0.40871,1.247364 -0.50537,1.869873 -0.0967,0.622607 -0.0725,1.22246 0.0725,1.79956 0.145,0.577195 0.45774,1.057663 0.93823,1.441406 0.76756,0.480514 1.82297,0.720749 3.16626,0.720704 1.34324,4.5e-5 2.63889,4.5e-5 3.88697,0 l 15.98291,0 c 1.34467,4.5e-5 2.76118,-0.02412 4.24951,-0.07251 1.48823,-0.04829 2.4726,-0.456253 2.95312,-1.223877 z"
         style="fill:#d64541;fill-opacity:1"
         id="path3784"
         inkscape:connector-curvature="0" />
      <path
         d="m 250.36437,-83.477476 c 0.86422,1.03e-4 1.8486,1.03e-4 2.95313,0 1.10445,1.03e-4 2.20821,0.04844 3.31128,0.145019 1.10298,0.09678 2.08662,0.265239 2.95092,0.505372 0.86421,0.240336 1.4399,0.600687 1.72705,1.081054 0.5771,0.767678 0.86568,1.847267 0.86573,3.23877 -5e-5,1.391698 -5e-5,2.71152 0,3.959472 -5e-5,0.961031 -0.0242,1.921235 -0.0725,2.880616 -0.0484,0.959562 -0.26446,1.679532 -0.6482,2.159912 -0.38383,0.577236 -0.86357,0.937587 -1.43921,1.081054 -0.57572,0.143643 -1.22392,0.21542 -1.94458,0.215332 -0.72074,8.8e-5 -1.44071,-0.02408 -2.15991,-0.07251 -0.71928,-0.04825 -1.41581,-0.02408 -2.0896,0.07251 -1.72562,0.383877 -3.06888,0.839442 -4.02978,1.3667 -0.96097,0.527429 -1.72855,1.607018 -2.30274,3.238769 -0.19339,0.290122 -0.2659,0.555258 -0.21753,0.79541 0.0483,0.240316 0.0241,0.503988 -0.0725,0.791016 -0.0967,0.38387 -0.19266,0.959553 -0.28784,1.727051 -0.0953,0.767657 -0.0945,1.391679 0.002,1.87207 0.1904,0.670975 0.4299,1.246658 0.71851,1.727051 0.28854,0.480544 0.71993,0.864333 1.29418,1.151367 0.96091,0.480543 2.11374,0.62483 3.4585,0.432861 1.34469,-0.19182 2.59273,-0.191087 3.74414,0.0022 0.48043,0.09382 0.88839,0.117261 1.22388,0.07031 0.3354,-0.0468 0.69502,-0.02336 1.07886,0.07031 0.86421,0.386792 1.48823,0.818921 1.87207,1.296386 0.19331,0.290112 0.3376,0.747143 0.43286,1.371094 0.0952,0.624094 0.19111,1.295725 0.28784,2.014893 0.0966,0.719307 0.1208,1.439277 0.0725,2.159912 -0.0484,0.72077 -0.1209,1.273015 -0.21753,1.656738 -0.0967,0.383854 -0.0967,0.743473 0,1.078857 0.0966,0.335514 0.0483,0.695133 -0.14502,1.078858 -0.19048,1.154359 -0.76616,1.875062 -1.72705,2.162109 -0.76762,0.38385 -1.67949,0.551575 -2.7356,0.503174 -1.05619,-0.04828 -2.11161,-0.07245 -3.16626,-0.07251 -0.29007,6.1e-5 -0.62699,6.1e-5 -1.01074,0 -0.38382,6.1e-5 -0.71927,0.0484 -1.00635,0.14502 l -1.15136,0 c -1.63187,0.383849 -2.63968,1.440001 -3.02344,3.168457 -0.19339,0.574276 -0.24173,1.245906 -0.14502,2.014892 0.0966,0.769098 0.14499,1.537408 0.14502,2.304932 l 0,8.784668 0,28.0766603 0,6.7719726 c -3e-5,0.5742281 0.0234,1.1733481 0.0703,1.7973631 0.0468,0.624031 -0.0249,1.176276 -0.21533,1.656738 l 0,1.582032 c -3e-5,1.538089 -0.24027,2.64258 -0.7207,3.313476 -0.19339,0.287111 -0.52958,0.503175 -1.00855,0.648194 -0.47903,0.14502 -0.95877,0.312744 -1.43921,0.503173 l -0.7207,0 c -0.4805,0.09668 -1.00857,0.12085 -1.58423,0.07251 -0.57571,-0.04834 -1.10378,-0.07251 -1.58423,-0.07251 l -6.33691,0 c -0.67092,1e-6 -1.36672,0.02417 -2.0874,0.07251 -0.72072,0.04834 -1.31984,-0.02417 -1.79737,-0.217529 -1.15431,-0.287109 -1.92335,-0.766112 -2.30713,-1.437012 -0.28712,-0.480466 -0.45484,-1.104489 -0.50317,-1.87207 -0.0483,-0.767574 -0.0725,-1.535151 -0.0725,-2.302734 l 0,-7.4882817 0,-40.3198243 c -1e-5,-1.63471 -0.096,-3.051945 -0.28784,-4.251709 -0.19191,-1.199648 -0.86354,-2.039735 -2.01489,-2.520264 -1.0547,-0.477478 -2.35035,-0.596862 -3.88697,-0.358154 -1.53662,0.23883 -2.83228,0.119446 -3.88696,-0.358154 -1.05762,-0.480407 -1.72998,-1.296324 -2.01709,-2.447754 -0.19336,-0.480405 -0.26587,-1.05682 -0.21753,-1.729248 0.0483,-0.672297 0.0725,-1.343928 0.0725,-2.014893 0,-1.728446 0.0959,-3.169119 0.28784,-4.322021 0.1919,-1.152759 1.00855,-1.969409 2.44995,-2.449951 0.76758,-0.190356 1.5835,-0.28557 2.44776,-0.285645 0.86425,7.5e-5 1.70434,7.5e-5 2.52026,0 0.81591,7.5e-5 1.55932,-0.0717 2.23023,-0.215332 0.67088,-0.14348 1.19823,-0.503831 1.58203,-1.081055 0.67381,-0.96086 0.93895,-2.184736 0.79541,-3.67163 -0.14357,-1.486736 -0.0718,-2.902506 0.21533,-4.247315 0.0967,-0.383705 0.16844,-0.767494 0.21533,-1.151367 0.0469,-0.383704 0.11864,-0.815832 0.21533,-1.296387 0.38378,-1.344639 0.76757,-2.569247 1.15137,-3.673828 0.38378,-1.104401 0.91258,-2.13565 1.58643,-3.09375 1.34178,-2.305569 3.11717,-4.1542 5.32617,-5.545898 2.20896,-1.391502 4.70505,-2.471091 7.48828,-3.23877 0.76755,-0.289937 1.58347,-0.458394 2.44775,-0.505371 0.86423,-0.04677 1.72849,-0.16689 2.59278,-0.360352 0.28707,-0.09658 0.71847,-0.09658 1.29419,0 0.57564,0.09678 0.96017,0.04844 1.15356,-0.145019 z"
         style="fill:#d64541;fill-opacity:1"
         id="path3786"
         inkscape:connector-curvature="0" />
    </g>
  </g>
</svg>
